<svg width="30" height="27" viewBox="0 0 30 27" fill="none" xmlns="http://www.w3.org/2000/svg">
<path d="M24.5634 7.50278V4.90315H21.6736V7.50278H24.5634Z" fill="white"/>
<path fill-rule="evenodd" clip-rule="evenodd" d="M26.5271 4.90315H24.5634V3.53796C24.5634 2.59964 24.1572 1.70001 23.4346 1.03651C22.712 0.373015 21.7322 0 20.7103 0H3.85309C2.83118 0 1.85143 0.373015 1.12883 1.03651C0.40624 1.70001 0 2.59964 0 3.53796V21.2278C0 21.7643 0.351957 22.2481 0.891778 22.4535C1.4317 22.6588 2.05326 22.5453 2.4665 22.1658L6.85955 18.1321H7.86017V19.2011C7.86017 20.1204 8.22632 21.0018 8.87762 21.6518C9.52892 22.3019 10.412 22.6673 11.3331 22.6673H23.8173L27.7769 26.6192C28.1493 26.991 28.7096 27.1022 29.1962 26.901C29.6828 26.6998 30 26.2259 30 25.7002V8.36932C30 7.45004 29.6338 6.56866 28.9825 5.91863C28.3312 5.26859 27.4482 4.90315 26.5271 4.90315ZM24.5634 14.5941V7.50278H26.5271C26.7574 7.50278 26.9781 7.59414 27.1409 7.75665C27.3038 7.91916 27.3953 8.1395 27.3953 8.36932V22.5624L25.2773 20.4485L25.1815 20.3622C24.9498 20.1727 24.6587 20.0677 24.3565 20.0677H11.3331C11.1028 20.0677 10.882 19.9763 10.7192 19.8138C10.5564 19.6513 10.4649 19.431 10.4649 19.2011V18.1321H20.7103C21.7322 18.1321 22.712 17.759 23.4346 17.0955C24.1572 16.4321 24.5634 15.5324 24.5634 14.5941ZM21.3914 2.9126C21.572 3.07848 21.6736 3.30338 21.6736 3.53796V4.90315V7.50278V14.5941C21.6736 14.8287 21.572 15.0536 21.3914 15.2195C21.2108 15.3853 20.9658 15.4786 20.7103 15.4786H10.4649H7.86017H6.26127C5.92603 15.4786 5.60305 15.5858 5.34597 15.7792L5.23967 15.8673L2.88982 18.025V3.53796C2.88982 3.30338 2.99137 3.07847 3.17202 2.9126C3.35267 2.74673 3.59761 2.65347 3.85309 2.65347H20.7103C20.9658 2.65347 21.2108 2.74673 21.3914 2.9126Z" fill="white"/>
</svg>
