<svg width="72" height="18" viewBox="0 0 72 18" fill="none" xmlns="http://www.w3.org/2000/svg">
<path d="M10.0229 10.4039H8.09766L7.64812 9.95804V8.04242L8.09884 7.59343H10.0233L10.4748 8.04085V9.95686L10.0229 10.4039Z" fill="white"/>
<path d="M15.6995 15.6173H12.3168L12.3093 10.8057L13.9176 10.81L15.6995 12.5816V15.6173Z" fill="white"/>
<path d="M8.94463 0L11.3352 2.3803L7.91689 5.78533L6.78337 4.6511L6.78495 2.14521L8.94463 0Z" fill="white"/>
<path d="M15.7165 2.38705V5.75087L10.8781 5.75832L10.882 4.15903L12.664 2.38705H15.7165Z" fill="white"/>
<path d="M18.1249 8.86351L15.7371 11.2466L12.3045 7.85526L13.4428 6.72535L15.9628 6.72104L18.1249 8.86351Z" fill="white"/>
<path d="M2.40837 15.6141V12.2503L7.24713 12.2429L7.24279 13.8422L5.46081 15.6141H2.40837Z" fill="white"/>
<path d="M0 9.13762L2.38781 6.75457L5.82033 10.1459L4.68247 11.2758L2.16205 11.2801L0 9.13762Z" fill="white"/>
<path d="M2.42529 2.38379H5.80809L5.81559 7.19542L4.20727 7.19149L2.42529 5.41951V2.38379Z" fill="white"/>
<path d="M9.18301 18L6.79086 15.6213L10.2072 12.2139L11.3415 13.3477V15.8536L9.18301 18Z" fill="white"/>
<path d="M25.6537 12.558V13.0317H24.5826V15.6298H24.03V13.0317H22.9597V12.558H25.6537Z" fill="white"/>
<path d="M26.4542 15.1604H28.3612V15.6314H25.9087V12.558H28.3628V13.023H26.4542V13.8437H28.2567V14.3001H26.4542V15.1604Z" fill="white"/>
<path d="M29.1193 15.2436C28.7984 14.9497 28.6382 14.5651 28.6382 14.0941C28.6382 13.6231 28.7984 13.2428 29.1241 12.9446C29.4497 12.6463 29.8601 12.4968 30.3649 12.4968C30.8506 12.4968 31.2611 12.6548 31.5963 12.9709L31.2281 13.2848C30.9968 13.0698 30.7186 12.9642 30.3835 12.9642C30.0283 12.9642 29.7469 13.0698 29.525 13.2758C29.3032 13.4819 29.1947 13.7585 29.1947 14.0921C29.1947 14.4257 29.3032 14.6977 29.525 14.9041C29.7469 15.1106 30.0298 15.2201 30.3835 15.2201C30.7094 15.2277 31.0256 15.1097 31.266 14.8908L31.6212 15.2334C31.2861 15.536 30.8713 15.6899 30.3712 15.6899C29.8554 15.6914 29.4402 15.5419 29.1193 15.2436Z" fill="white"/>
<path d="M34.1958 12.558H34.7483V15.6298H34.1958V14.3087H32.4738V15.6298H31.9213V12.558H32.4738V13.8303H34.1958V12.558Z" fill="white"/>
<path d="M37.3338 12.558H37.8864V15.6298H37.3867L35.6032 13.4355L35.6079 14.4143V15.631H35.0554V12.558H35.5554L37.3386 14.7522L37.3338 13.8347V12.558Z" fill="white"/>
<path d="M38.6719 15.2524C38.3561 14.9585 38.2002 14.5723 38.2002 14.0939C38.2002 13.6154 38.3557 13.2249 38.6719 12.931C38.988 12.637 39.3937 12.4922 39.9033 12.4922C40.4128 12.4922 40.8205 12.6421 41.1362 12.9353C41.452 13.2285 41.6031 13.6154 41.6031 14.0939C41.6031 14.5723 41.4476 14.9573 41.1362 15.2524C40.8248 15.5475 40.4096 15.6959 39.9048 15.6959C39.4001 15.6959 38.9833 15.5464 38.6719 15.2524ZM40.7289 14.9102C40.9413 14.7041 41.0447 14.4318 41.0447 14.0939C41.0447 13.7559 40.9409 13.484 40.7289 13.2775C40.517 13.0711 40.2427 12.9659 39.9033 12.9659C39.5638 12.9659 39.2852 13.0715 39.0744 13.2775C38.8637 13.4836 38.7587 13.7559 38.7587 14.0939C38.7587 14.4318 38.8625 14.7041 39.0744 14.9102C39.2864 15.1162 39.5603 15.2218 39.9033 15.2218C40.2462 15.2218 40.5166 15.1166 40.7289 14.9102Z" fill="white"/>
<path d="M41.892 15.6298V12.558H42.4445V15.1514H44.1854V15.6298H41.892Z" fill="white"/>
<path d="M44.9398 15.2524C44.624 14.9585 44.4681 14.5723 44.4681 14.0939C44.4681 13.6154 44.6236 13.2249 44.9398 12.931C45.2559 12.637 45.6616 12.4922 46.1712 12.4922C46.6807 12.4922 47.0864 12.6413 47.4026 12.9353C47.7187 13.2293 47.8695 13.6154 47.8695 14.0942C47.8695 14.5731 47.714 14.9577 47.4026 15.2528C47.0912 15.5479 46.676 15.6963 46.1712 15.6963C45.6664 15.6963 45.2512 15.5464 44.9398 15.2524ZM46.9968 14.9102C47.2092 14.7041 47.3126 14.4318 47.3126 14.0939C47.3126 13.7559 47.2088 13.484 46.9968 13.2775C46.7849 13.0711 46.511 12.9659 46.1712 12.9659C45.8314 12.9659 45.5531 13.0715 45.3423 13.2775C45.1316 13.4836 45.0266 13.7559 45.0266 14.0939C45.0266 14.4318 45.1304 14.7041 45.3423 14.9102C45.5543 15.1162 45.8282 15.2218 46.1712 15.2218C46.5141 15.2218 46.7845 15.1166 46.9968 14.9102Z" fill="white"/>
<path d="M49.8085 13.8834H51.2427V15.1868C50.8796 15.5247 50.4313 15.6915 49.8985 15.6915C49.3854 15.6915 48.969 15.5467 48.6576 15.2523C48.3462 14.958 48.1903 14.5765 48.1903 14.0938C48.1903 13.6228 48.3509 13.2382 48.6766 12.9395C49.0022 12.6409 49.4217 12.4964 49.936 12.4964C50.4222 12.4964 50.8323 12.6534 51.1626 12.9705L50.8074 13.2994C50.5856 13.0934 50.2505 12.9705 49.9297 12.9705C49.5744 12.9705 49.2926 13.0757 49.0712 13.2822C48.8498 13.4886 48.7409 13.7602 48.7409 14.0938C48.7409 14.4364 48.8447 14.7084 49.0566 14.9101C49.2686 15.1118 49.5425 15.2174 49.8965 15.2174C50.2217 15.2174 50.5 15.1341 50.7312 14.9674V14.3351H49.8065L49.8085 13.8834Z" fill="white"/>
<path d="M54.7411 12.558L53.4059 14.3876V15.6298H52.8581V14.3876L51.5608 12.558H52.2167L53.1343 13.9006L54.0776 12.558H54.7411Z" fill="white"/>
<path d="M28.8858 2.32683H30.322V10.0792H28.8858V6.74559H24.4081V10.0792H22.9727V2.32683H24.4081V5.53837H28.8858V2.32683Z" fill="white"/>
<path d="M33.2533 8.89434H38.1797V10.0792H31.8301V2.32683H38.1797V3.50069H33.2533V5.57173H37.9393V6.72361H33.2533V8.89434Z" fill="white"/>
<path d="M49.8135 8.89434H54.7395V10.0792H48.3903V2.32683H54.7395V3.50069H49.8135V5.57173H54.5V6.72361H49.8135V8.89434Z" fill="white"/>
<path d="M46.878 7.93241C46.878 9.30604 45.7614 10.0808 43.7861 10.0808H39.6885V2.32683H43.7861C45.5408 2.32683 46.608 3.09096 46.608 4.37549C46.608 5.13962 46.2031 5.76011 45.5159 6.07016C46.3014 6.3233 46.878 7.09999 46.878 7.93241ZM41.1117 3.48028V5.52895H43.835C44.6816 5.52895 45.1966 5.16356 45.1966 4.50854C45.1966 3.87706 44.6816 3.47871 43.835 3.47871L41.1117 3.48028ZM43.9455 8.9069C44.8781 8.9069 45.4548 8.47519 45.4548 7.766C45.4548 7.06859 44.8904 6.64748 43.9581 6.64748H41.1117V8.9069H43.9455Z" fill="white"/>
<path d="M62.1532 2.32683H63.5886V10.0792H62.2862L57.6487 4.5419L57.6609 7.01129V10.0792H56.2255V2.32683H57.5279L62.1654 7.86412L62.1532 5.54857V2.32683Z" fill="white"/>
<path d="M72 2.32683V3.52306H69.2151V10.0792H67.7797V3.52306H64.9948V2.32683H72Z" fill="white"/>
</svg>
