<svg width="32" height="32" viewBox="0 0 48 48" fill="none" xmlns="http://www.w3.org/2000/svg">
  <rect width="48" height="48" rx="8" fill="#06306A"/>
  <path d="M18.2901 5.82049L20.1958 11.8672L22.6474 7.98689L21.9466 0L18.2901 5.82049Z" fill="white"/>
  <path d="M25.4187 7.98689L27.8704 11.8672L29.7613 5.8623L26.1196 0L25.4187 7.98689Z" fill="white"/>
  <path d="M39.5113 5.54262L32.808 7.07213L29.8818 12.6959L34.3572 11.6852L39.5113 5.54262Z" fill="white"/>
  <path d="M35.3064 18.1205L40.8908 15.2139L42.4596 8.49098L36.317 13.6451L35.3064 18.1205Z" fill="white"/>
  <path d="M18.2778 42.1795L21.9343 48L22.6351 40.0131L20.186 36.1328L18.2778 42.1795Z" fill="white"/>
  <path d="M25.4089 40.0131L26.1072 48L29.7515 42.1377L27.8581 36.1328L25.4089 40.0131Z" fill="white"/>
  <path d="M29.899 35.2771L32.8277 40.8984L39.5285 42.4303L34.3769 36.2877L29.899 35.2771Z" fill="white"/>
  <path d="M35.3261 29.85L36.3367 34.3254L42.4793 39.4795L40.9105 32.7566L35.3261 29.85Z" fill="white"/>
  <path d="M36.1548 20.159L40.0326 22.6082L48.0195 21.9098L42.199 18.2508L36.1548 20.159Z" fill="white"/>
  <path d="M36.1548 27.8311L42.1572 29.7246L48.0195 26.0803L40.0326 25.382L36.1548 27.8311Z" fill="white"/>
  <path d="M18.1401 12.7082L15.2114 7.08443L8.51061 5.55492L13.6622 11.6975L18.1401 12.7082Z" fill="white"/>
  <path d="M12.7131 18.1328L11.7024 13.6574L5.55981 8.50328L7.13111 15.2262L12.7131 18.1328Z" fill="white"/>
  <path d="M8.54258 42.4426L15.2458 40.9131L18.172 35.2893L13.6967 36.3L8.54258 42.4426Z" fill="white"/>
  <path d="M12.7475 29.8623L7.16308 32.7689L5.59424 39.4918L11.7368 34.3377L12.7475 29.8623Z" fill="white"/>
  <path d="M11.8672 20.1713L5.82047 18.2631L0 21.9221L7.98685 22.6205L11.8672 20.1713Z" fill="white"/>
  <path d="M11.8672 27.8434L7.98685 25.3943L0 26.0926L5.86227 29.7369L11.8672 27.8434Z" fill="white"/>
</svg>
