<svg width="48" height="48" viewBox="0 0 48 48" fill="none" xmlns="http://www.w3.org/2000/svg">
<path d="M18.2827 5.82049L20.1876 11.8672L22.6383 7.98689L21.9377 0L18.2827 5.82049Z" fill="white"/>
<path d="M25.4084 7.98689L27.8591 11.8672L29.7493 5.8623L26.109 0L25.4084 7.98689Z" fill="white"/>
<path d="M39.4953 5.54262L32.7948 7.07213L29.8697 12.6959L34.3433 11.6852L39.4953 5.54262Z" fill="white"/>
<path d="M35.2921 18.1205L40.8742 15.2139L42.4424 8.49098L36.3023 13.6451L35.2921 18.1205Z" fill="white"/>
<path d="M18.2704 42.1795L21.9254 48L22.626 40.0131L20.1778 36.1328L18.2704 42.1795Z" fill="white"/>
<path d="M25.3986 40.0131L26.0967 48L29.7394 42.1377L27.8468 36.1328L25.3986 40.0131Z" fill="white"/>
<path d="M29.8869 35.2771L32.8144 40.8984L39.5125 42.4303L34.363 36.2877L29.8869 35.2771Z" fill="white"/>
<path d="M35.3118 29.85L36.322 34.3254L42.4621 39.4795L40.8939 32.7566L35.3118 29.85Z" fill="white"/>
<path d="M36.1401 20.159L40.0164 22.6082L48 21.9098L42.1819 18.2508L36.1401 20.159Z" fill="white"/>
<path d="M36.1401 27.8311L42.1401 29.7246L48 26.0803L40.0164 25.382L36.1401 27.8311Z" fill="white"/>
<path d="M18.1327 12.7082L15.2052 7.08443L8.50716 5.55492L13.6567 11.6975L18.1327 12.7082Z" fill="white"/>
<path d="M12.7079 18.1328L11.6977 13.6574L5.55755 8.50328L7.12822 15.2262L12.7079 18.1328Z" fill="white"/>
<path d="M8.53912 42.4426L15.2396 40.9131L18.1647 35.2893L13.6911 36.3L8.53912 42.4426Z" fill="white"/>
<path d="M12.7423 29.8623L7.16018 32.7689L5.59197 39.4918L11.7321 34.3377L12.7423 29.8623Z" fill="white"/>
<path d="M11.8623 20.1713L5.81811 18.2631L0 21.9221L7.98361 22.6205L11.8623 20.1713Z" fill="white"/>
<path d="M11.8623 27.8434L7.98361 25.3943L0 26.0926L5.85989 29.7369L11.8623 27.8434Z" fill="white"/>
</svg>
