<svg width="36" height="36" viewBox="0 0 36 36" fill="none" xmlns="http://www.w3.org/2000/svg">
<path d="M13.712 4.36537L15.1407 8.90041L16.9787 5.99016L16.4533 0L13.712 4.36537Z" fill="#164194"/>
<path d="M19.0563 5.99016L20.8943 8.90041L22.312 4.39672L19.5817 0L19.0563 5.99016Z" fill="#164194"/>
<path d="M29.6215 4.15697L24.5961 5.3041L22.4023 9.52193L25.7575 8.76394L29.6215 4.15697Z" fill="#164194"/>
<path d="M26.4691 13.5904L30.6557 11.4105L31.8318 6.36824L27.2267 10.2338L26.4691 13.5904Z" fill="#164194"/>
<path d="M13.7028 31.6346L16.4441 36L16.9695 30.0098L15.1333 27.0996L13.7028 31.6346Z" fill="#164194"/>
<path d="M19.0489 30.0098L19.5725 36L22.3046 31.6033L20.8851 27.0996L19.0489 30.0098Z" fill="#164194"/>
<path d="M22.4152 26.4578L24.6108 30.6738L29.6344 31.8228L25.7722 27.2158L22.4152 26.4578Z" fill="#164194"/>
<path d="M26.4838 22.3875L27.2415 25.7441L31.8466 29.6096L30.6704 24.5674L26.4838 22.3875Z" fill="#164194"/>
<path d="M27.1051 15.1193L30.0123 16.9561L36 16.4324L31.6364 13.6881L27.1051 15.1193Z" fill="#164194"/>
<path d="M27.1051 20.8734L31.6051 22.2934L36 19.5602L30.0123 19.0365L27.1051 20.8734Z" fill="#164194"/>
<path d="M13.5995 9.53115L11.4039 5.31332L6.38037 4.16619L10.2425 8.77316L13.5995 9.53115Z" fill="#164194"/>
<path d="M9.53093 13.5996L8.77324 10.243L4.16817 6.37746L5.34617 11.4197L9.53093 13.5996Z" fill="#164194"/>
<path d="M6.40434 31.832L11.4297 30.6848L13.6235 26.467L10.2683 27.225L6.40434 31.832Z" fill="#164194"/>
<path d="M9.55674 22.3967L5.37013 24.5766L4.19398 29.6189L8.79906 25.7533L9.55674 22.3967Z" fill="#164194"/>
<path d="M8.89676 15.1285L4.36358 13.6973L0 16.4416L5.98771 16.9654L8.89676 15.1285Z" fill="#164194"/>
<path d="M8.89676 20.8826L5.98771 19.0457L0 19.5695L4.39492 22.3027L8.89676 20.8826Z" fill="#164194"/>
</svg>
