<svg width="33" height="43" viewBox="0 0 33 43" fill="none" xmlns="http://www.w3.org/2000/svg">
<path fill-rule="evenodd" clip-rule="evenodd" d="M16.5 43C17.3898 43 33 26.0318 33 16.77C33 7.50817 25.7726 0 16.5 0C7.22738 0 0 7.50817 0 16.77C0 26.0318 15.6102 43 16.5 43Z" fill="#164194"/>
<path d="M13.6924 7.84897L14.6279 10.9267L15.8313 8.95166L15.4873 4.88636L13.6924 7.84897Z" fill="white"/>
<path d="M17.1916 8.95166L18.3951 10.9267L19.3233 7.87025L17.5357 4.88636L17.1916 8.95166Z" fill="white"/>
<path d="M24.1093 7.70754L20.8189 8.48605L19.3825 11.3485L21.5793 10.8341L24.1093 7.70754Z" fill="white"/>
<path d="M22.0452 14.1096L24.7864 12.6302L25.5565 9.20824L22.5413 11.8317L22.0452 14.1096Z" fill="white"/>
<path d="M13.6863 26.3556L15.4812 29.3182L15.8252 25.2529L14.623 23.2778L13.6863 26.3556Z" fill="white"/>
<path d="M17.1868 25.2529L17.5296 29.3182L19.3185 26.3343L18.389 23.2778L17.1868 25.2529Z" fill="white"/>
<path d="M19.3909 22.8423L20.8285 25.7035L24.1177 26.4832L21.5889 23.3567L19.3909 22.8423Z" fill="white"/>
<path d="M22.0549 20.0799L22.551 22.3579L25.5662 24.9813L24.7961 21.5593L22.0549 20.0799Z" fill="white"/>
<path d="M22.4617 15.1472L24.3652 16.3939L28.2857 16.0384L25.4286 14.176L22.4617 15.1472Z" fill="white"/>
<path d="M22.4617 19.0523L25.4081 20.0161L28.2857 18.1612L24.3652 17.8057L22.4617 19.0523Z" fill="white"/>
<path d="M13.6187 11.3548L12.1811 8.49231L8.89191 7.7138L11.4207 10.8404L13.6187 11.3548Z" fill="white"/>
<path d="M10.9548 14.1159L10.4587 11.8379L7.44344 9.2145L8.21475 12.6365L10.9548 14.1159Z" fill="white"/>
<path d="M8.9076 26.4895L12.198 25.711L13.6344 22.8485L11.4376 23.3629L8.9076 26.4895Z" fill="white"/>
<path d="M10.9717 20.0862L8.23044 21.5656L7.46034 24.9875L10.4756 22.3641L10.9717 20.0862Z" fill="white"/>
<path d="M10.5395 15.1535L7.57139 14.1822L4.71429 16.0446L8.63481 16.4001L10.5395 15.1535Z" fill="white"/>
<path d="M10.5395 19.0586L8.63481 17.8119L4.71429 18.1674L7.59191 20.0223L10.5395 19.0586Z" fill="white"/>
</svg>
