<svg width="16" height="17" viewBox="0 0 16 17" fill="none" xmlns="http://www.w3.org/2000/svg">
<path d="M7.11111 8.41456V12.7498C7.11111 12.9752 7.20476 13.1914 7.37146 13.3509C7.53816 13.5103 7.76425 13.5998 8 13.5998C8.23575 13.5998 8.46184 13.5103 8.62854 13.3509C8.79524 13.1914 8.88889 12.9752 8.88889 12.7498V8.41456C9.96804 8.20391 10.927 7.61757 11.5797 6.76923C12.2325 5.92088 12.5326 4.87097 12.4219 3.82303C12.3112 2.7751 11.7976 1.8038 10.9806 1.09744C10.1636 0.391088 9.1014 0 8 0C6.8986 0 5.83643 0.391088 5.01942 1.09744C4.20241 1.8038 3.68876 2.7751 3.57806 3.82303C3.46736 4.87097 3.76749 5.92088 4.42027 6.76923C5.07305 7.61757 6.03196 8.20391 7.11111 8.41456ZM8 1.69922C8.52742 1.69922 9.04299 1.84878 9.48152 2.12899C9.92005 2.40921 10.2618 2.80748 10.4637 3.27346C10.6655 3.73943 10.7183 4.25218 10.6154 4.74686C10.5125 5.24153 10.2586 5.69592 9.88562 6.05256C9.51268 6.40921 9.03752 6.65208 8.52024 6.75048C8.00296 6.84888 7.46678 6.79838 6.97951 6.60536C6.49224 6.41235 6.07577 6.08549 5.78275 5.66613C5.48973 5.24676 5.33333 4.75372 5.33333 4.24935C5.33333 3.57301 5.61428 2.92438 6.11438 2.44614C6.61448 1.96789 7.29276 1.69922 8 1.69922ZM11.7422 10.5567C11.6255 10.5332 11.5051 10.532 11.3879 10.5531C11.2706 10.5741 11.1589 10.6171 11.059 10.6794C10.9591 10.7418 10.8731 10.8223 10.8058 10.9165C10.7384 11.0107 10.6912 11.1166 10.6667 11.2282C10.6422 11.3398 10.6409 11.455 10.6629 11.5671C10.6849 11.6792 10.7298 11.7861 10.795 11.8816C10.8602 11.9771 10.9445 12.0594 11.0429 12.1237C11.1414 12.1881 11.2522 12.2333 11.3689 12.2568C13.3867 12.6393 14.2222 13.3278 14.2222 13.5998C14.2222 14.0929 12.0444 15.2999 8 15.2999C3.95556 15.2999 1.77778 14.0929 1.77778 13.5998C1.77778 13.3278 2.61333 12.6393 4.63111 12.2228C4.74784 12.1993 4.8586 12.1541 4.95707 12.0897C5.05553 12.0254 5.13977 11.9431 5.20498 11.8476C5.27018 11.752 5.31508 11.6452 5.33711 11.5331C5.35913 11.421 5.35785 11.3058 5.33333 11.1942C5.30882 11.0826 5.26156 10.9767 5.19424 10.8825C5.12692 10.7883 5.04087 10.7078 4.94099 10.6454C4.84112 10.5831 4.72938 10.5401 4.61215 10.5191C4.49493 10.498 4.37451 10.4992 4.25778 10.5227C1.55556 11.1177 0 12.2313 0 13.5998C0 15.8354 4.02667 17 8 17C11.9733 17 16 15.8354 16 13.5998C16 12.2313 14.4444 11.1177 11.7422 10.5567Z" fill="#164194"/>
</svg>
