<svg width="137" height="53" viewBox="0 0 137 53" fill="none" xmlns="http://www.w3.org/2000/svg">
<path d="M19.5761 6.31967L21.6158 12.885L24.2398 8.67186L23.4897 0L19.5761 6.31967Z" fill="white"/>
<path d="M27.206 8.67186L29.83 12.885L31.8539 6.36506L27.9561 0L27.206 8.67186Z" fill="white"/>
<path d="M42.2894 6.01797L35.1149 7.67866L31.9829 13.7847L36.773 12.6874L42.2894 6.01797Z" fill="white"/>
<path d="M37.7889 19.6745L43.7659 16.5187L45.4451 9.21919L38.8706 14.8153L37.7889 19.6745Z" fill="white"/>
<path d="M19.5629 45.7969L23.4766 52.1166L24.2267 43.4447L21.6053 39.2316L19.5629 45.7969Z" fill="white"/>
<path d="M27.1955 43.4447L27.9429 52.1166L31.8434 45.7515L29.8168 39.2316L27.1955 43.4447Z" fill="white"/>
<path d="M32.0013 38.3025L35.1359 44.4059L42.3078 46.0693L36.794 39.3998L32.0013 38.3025Z" fill="white"/>
<path d="M37.8099 32.41L38.8917 37.2692L45.4661 42.8654L43.787 35.5658L37.8099 32.41Z" fill="white"/>
<path d="M38.6969 21.8879L42.8474 24.5471L51.3958 23.7889L45.1661 19.8161L38.6969 21.8879Z" fill="white"/>
<path d="M38.6969 30.218L45.1214 32.2738L51.3958 28.317L42.8474 27.5588L38.6969 30.218Z" fill="white"/>
<path d="M19.4156 13.7981L16.281 7.692L9.10902 6.03132L14.6229 12.7007L19.4156 13.7981Z" fill="white"/>
<path d="M13.6069 19.6879L12.5252 14.8287L5.95073 9.23254L7.63252 16.5321L13.6069 19.6879Z" fill="white"/>
<path d="M9.14323 46.0826L16.3178 44.4219L19.4498 38.3158L14.6597 39.4132L9.14323 46.0826Z" fill="white"/>
<path d="M13.6438 32.4234L7.66674 35.5792L5.98758 42.8787L12.5621 37.2826L13.6438 32.4234Z" fill="white"/>
<path d="M12.7016 21.9013L6.22972 19.8294L0 23.8022L8.54842 24.5605L12.7016 21.9013Z" fill="white"/>
<path d="M12.7016 30.2314L8.54842 27.5721L0 28.3304L6.27446 32.2872L12.7016 30.2314Z" fill="white"/>
<path d="M60.5048 19.469C60.5048 13.7634 65.1396 9.18182 70.7693 9.18182C76.3989 9.18182 81.0337 13.7634 81.0337 19.469C80.9385 22.1643 79.8161 24.717 77.9028 26.5897C75.9895 28.4623 73.4345 29.5088 70.7758 29.5088C68.1172 29.5088 65.5622 28.4623 63.6489 26.5897C61.7356 24.717 60.6132 22.1643 60.518 19.469H60.5048ZM77.4043 19.469C77.4043 15.392 74.5092 12.4204 70.764 12.4204C67.0188 12.4204 64.1211 15.3947 64.1211 19.469C64.1211 23.5432 67.0162 26.5416 70.764 26.5416C74.5118 26.5416 77.4043 23.5699 77.4043 19.469Z" fill="white"/>
<path d="M83.1945 19.469C83.1945 13.7634 87.7319 9.18182 93.9011 9.18182C96.9514 9.18182 99.1649 10.0709 100.639 11.0054V14.818C98.699 13.427 96.5724 12.4151 93.9011 12.4151C89.5768 12.4151 86.8107 15.3867 86.8107 19.4636C86.8107 23.5406 89.6005 26.5362 93.8063 26.5362C95.1623 26.5536 96.5017 26.2327 97.7068 25.6017V22.0775H93.6905V19.0605H101.06V27.5C98.922 28.9799 96.3918 29.7666 93.8037 29.7561C87.7319 29.7561 83.1945 25.1986 83.1945 19.469Z" fill="white"/>
<path d="M103.155 21.6022V9.58764H106.629V21.6022C106.629 24.8061 108.332 26.5175 110.908 26.5175C113.485 26.5175 115.304 24.8648 115.304 21.6022V9.58764H118.707V21.6236C118.707 26.7311 115.327 29.7535 110.861 29.7535C106.395 29.7535 103.155 26.7818 103.155 21.6022Z" fill="white"/>
<path d="M120.915 29.3476L130.916 12.8262H121.72V9.59031H136.722L126.721 26.1117H136.498V29.3476H120.915Z" fill="white"/>
<path d="M61.9445 42.569H60.6022V34.8049H65.8476V36.0037H61.9445V38.0168H65.766V39.2156H61.9445V42.569Z" fill="white"/>
<path d="M73.4328 41.5731C72.6739 42.3033 71.6678 42.7103 70.6219 42.7103C69.576 42.7103 68.5699 42.3033 67.811 41.5731C67.1023 40.7859 66.7094 39.7584 66.7094 38.6923C66.7094 37.6262 67.1023 36.5987 67.811 35.8115C68.5705 35.0825 69.5763 34.6763 70.6219 34.6763C71.6674 34.6763 72.6733 35.0825 73.4328 35.8115C74.1415 36.5987 74.5344 37.6262 74.5344 38.6923C74.5344 39.7584 74.1415 40.7859 73.4328 41.5731ZM70.6219 41.4984C70.9683 41.5118 71.3133 41.4469 71.632 41.3084C71.9506 41.1699 72.2349 40.9612 72.4642 40.6974C72.9167 40.1279 73.1634 39.4184 73.1634 38.687C73.1634 37.9555 72.9167 37.246 72.4642 36.6765C72.2259 36.4245 71.9399 36.2241 71.6233 36.0871C71.3067 35.9501 70.9661 35.8795 70.6219 35.8795C70.2777 35.8795 69.9371 35.9501 69.6205 36.0871C69.3038 36.2241 69.0178 36.4245 68.7795 36.6765C68.3296 37.2487 68.0846 37.959 68.0846 38.691C68.0846 39.4229 68.3296 40.1332 68.7795 40.7054C69.0102 40.967 69.2949 41.1737 69.6134 41.3108C69.9318 41.4478 70.2762 41.5119 70.6219 41.4984Z" fill="white"/>
<path d="M81.3943 42.569H79.8441L78.1465 39.6695H76.8148V42.569H75.4725V34.8049H78.8361C79.1674 34.7899 79.4983 34.8419 79.8096 34.9578C80.121 35.0738 80.4064 35.2514 80.6494 35.4804C80.8784 35.7084 81.0578 35.9825 81.1761 36.2851C81.2944 36.5876 81.349 36.912 81.3364 37.2372C81.3701 37.7788 81.2026 38.3135 80.867 38.7361C80.5313 39.1586 80.0518 39.4383 79.523 39.52L81.3943 42.569ZM78.6518 38.4707C78.9959 38.4845 79.3321 38.3641 79.5914 38.1343C79.7082 38.0169 79.801 37.8771 79.8642 37.7232C79.9275 37.5692 79.9601 37.404 79.9601 37.2372C79.9601 37.0704 79.9275 36.9052 79.8642 36.7512C79.801 36.5973 79.7082 36.4575 79.5914 36.3401C79.3321 36.1103 78.9959 35.9899 78.6518 36.0037H76.8095V38.4707H78.6518Z" fill="white"/>
<path d="M85.6369 42.7105C84.5508 42.7105 83.7261 42.423 83.1629 41.8481C82.8743 41.5355 82.651 41.1669 82.5062 40.7646C82.3615 40.3622 82.2984 39.9343 82.3207 39.5066V34.8049H83.6735V39.4612C83.6444 40.007 83.8289 40.5424 84.1867 40.951C84.5891 41.3032 85.1029 41.4969 85.6343 41.4969C86.1657 41.4969 86.6794 41.3032 87.0818 40.951C87.4329 40.539 87.6131 40.0051 87.5845 39.4612V34.8049H88.9399V39.4959C88.9399 40.4891 88.6583 41.2732 88.0951 41.8481C87.5319 42.423 86.7125 42.7105 85.6369 42.7105Z" fill="white"/>
<path d="M97.8094 42.569H96.4672V36.8074L94.1248 42.569H93.551L91.2113 36.8074V42.569H89.8663V34.8049H91.7561L93.8326 39.9151L95.9223 34.8049H97.8094V42.569Z" fill="white"/>
<path d="M103.392 42.8013H102.565V34.5726H103.392V42.8013Z" fill="white"/>
<path d="M113.214 42.569H107.971V34.8049H113.214V36.0037H109.313V38.0168H113.135V39.2156H109.313V41.3702H113.214V42.569Z" fill="white"/>
<path d="M121.676 42.569H120.07L117.922 39.5306L115.777 42.569H114.169L117.041 38.5882L114.343 34.8049H115.949L117.922 37.6564L119.886 34.8049H121.497L118.809 38.5775L121.676 42.569Z" fill="white"/>
<path d="M123.878 42.569H122.549V34.8049H125.913C126.249 34.7869 126.584 34.8396 126.899 34.9595C127.214 35.0794 127.501 35.264 127.742 35.5018C128.175 35.9728 128.416 36.593 128.416 37.2372C128.416 37.8814 128.175 38.5016 127.742 38.9726C127.502 39.2122 127.215 39.3983 126.9 39.5192C126.585 39.6401 126.249 39.6931 125.913 39.6748H123.892L123.878 42.569ZM125.721 38.4707C126.066 38.4843 126.403 38.364 126.663 38.1343C126.897 37.8961 127.028 37.5735 127.028 37.2372C127.028 36.9009 126.897 36.5783 126.663 36.3401C126.403 36.1104 126.066 35.9901 125.721 36.0037H123.878V38.4707H125.721Z" fill="white"/>
<path d="M135.898 41.5731C135.139 42.3034 134.133 42.7105 133.086 42.7105C132.04 42.7105 131.033 42.3034 130.274 41.5731C129.565 40.7859 129.172 39.7584 129.172 38.6923C129.172 37.6262 129.565 36.5987 130.274 35.8115C131.034 35.083 132.04 34.6771 133.086 34.6771C134.132 34.6771 135.138 35.083 135.898 35.8115C136.607 36.5987 137 37.6262 137 38.6923C137 39.7584 136.607 40.7859 135.898 41.5731ZM133.077 41.4984C133.423 41.5115 133.768 41.4464 134.087 41.3079C134.405 41.1694 134.69 40.9609 134.919 40.6974C135.372 40.1279 135.618 39.4184 135.618 38.687C135.618 37.9555 135.372 37.246 134.919 36.6765C134.681 36.4245 134.395 36.2241 134.078 36.0871C133.762 35.9501 133.421 35.8795 133.077 35.8795C132.733 35.8795 132.392 35.9501 132.076 36.0871C131.759 36.2241 131.473 36.4245 131.235 36.6765C130.785 37.2487 130.54 37.959 130.54 38.691C130.54 39.4229 130.785 40.1332 131.235 40.7054C131.465 40.9673 131.75 41.1742 132.068 41.3113C132.387 41.4484 132.731 41.5123 133.077 41.4984Z" fill="white"/>
</svg>
